<?xml version="1.0" standalone="no"?>
<!DOCTYPE svg PUBLIC "-//W3C//DTD SVG 20010904//EN"
 "http://www.w3.org/TR/2001/REC-SVG-20010904/DTD/svg10.dtd">
<svg version="1.0" xmlns="http://www.w3.org/2000/svg"
 width="1007.000000pt" height="1007.000000pt" viewBox="0 0 1007.000000 1007.000000"
 preserveAspectRatio="xMidYMid meet">
<metadata>
Created by potrace 1.11, written by Peter Selinger 2001-2013
</metadata>
<g transform="translate(0.000000,1007.000000) scale(0.100000,-0.100000)"
fill="#000000" stroke="none">
<path d="M5129 7766 c-3 -3 -54 -7 -114 -10 -130 -5 -154 -9 -221 -41 -112
-53 -122 -67 -416 -588 -50 -89 -99 -175 -108 -192 -112 -194 -341 -597 -373
-655 -22 -41 -47 -81 -54 -88 -7 -7 -13 -17 -13 -21 0 -5 -115 -209 -255 -455
-140 -246 -266 -467 -279 -491 -14 -24 -35 -60 -48 -82 -13 -21 -32 -55 -43
-75 l-19 -37 -19 32 c-11 18 -28 46 -37 62 -9 17 -80 140 -157 275 -189 330
-181 316 -225 394 -21 38 -42 74 -47 80 -4 6 -22 36 -38 66 -27 50 -265 465
-635 1110 -74 129 -150 262 -168 295 -142 256 -192 320 -287 366 -97 47 -123
49 -708 46 -539 -3 -551 -3 -617 -25 -113 -38 -201 -124 -229 -225 -13 -46
-17 -286 -6 -356 27 -175 180 -276 432 -285 l30 -1 0 -1833 0 -1832 -40 -1
c-242 -6 -390 -106 -422 -285 -13 -70 -9 -290 6 -351 29 -120 131 -208 277
-238 110 -23 1273 -22 1361 1 130 33 215 101 254 202 18 48 22 80 23 202 2
161 -4 214 -35 276 -55 115 -207 192 -372 190 -31 -1 -58 4 -58 9 -4 34 -3
2835 1 2835 5 0 80 -125 140 -235 12 -22 46 -80 75 -130 42 -71 288 -501 387
-674 11 -19 63 -111 117 -205 127 -221 115 -199 336 -588 236 -413 273 -456
435 -499 43 -11 299 -14 349 -4 86 17 159 56 217 117 38 39 354 574 354 599 0
5 5 9 10 9 6 0 10 4 10 9 0 5 20 44 45 85 25 42 45 79 45 81 0 3 16 29 35 59
19 30 35 57 35 60 0 3 14 29 32 58 29 50 149 259 206 358 14 25 121 212 237
415 249 434 254 442 272 475 l13 25 1 -25 c1 -35 -2 -1191 -6 -2200 -3 -670
-7 -855 -17 -892 -14 -47 -17 -314 -4 -368 32 -137 140 -228 317 -266 33 -7
1354 -6 1406 1 145 19 256 98 310 220 25 57 31 357 8 430 -24 74 -72 139 -133
179 -71 47 -136 66 -249 73 -57 4 -93 10 -94 17 -1 14 -1 1158 0 1172 1 7 79
10 249 8 556 -5 609 -27 862 -363 14 -18 34 -45 45 -59 11 -15 31 -42 44 -61
118 -169 674 -961 710 -1011 25 -36 79 -113 121 -172 41 -59 102 -146 135
-194 98 -140 185 -208 302 -234 46 -11 856 -15 913 -5 59 10 78 16 137 45 80
40 144 110 169 187 28 86 27 355 -1 432 -36 98 -132 184 -241 216 -75 22 -95
23 -289 24 l-180 1 -36 53 c-49 71 -251 360 -262 372 -4 6 -66 93 -137 195
-72 102 -137 194 -144 205 -51 71 -216 308 -241 345 -35 54 -173 227 -186 235
-19 13 -6 22 74 55 472 193 820 541 965 965 37 109 68 244 79 345 14 136 8
408 -11 496 -2 12 -7 37 -10 55 -23 148 -109 350 -209 497 -53 77 -181 213
-257 274 -60 47 -200 137 -275 175 -218 112 -567 213 -855 247 -19 2 -55 7
-80 10 -62 8 -154 17 -225 24 -79 7 -2389 14 -2396 8z m2291 -920 c36 -3 85
-8 110 -12 25 -3 61 -7 80 -10 162 -21 349 -72 453 -125 212 -109 299 -277
292 -562 -10 -364 -165 -589 -490 -710 -67 -25 -192 -58 -265 -71 -19 -3 -44
-8 -55 -10 -19 -4 -128 -15 -205 -22 -30 -3 -870 -7 -955 -5 l-30 1 2 748 c1
411 2 757 2 769 l1 22 498 -4 c273 -2 526 -6 562 -9z"/>
</g>
</svg>
